<svg xmlns="http://www.w3.org/2000/svg" viewBox="0 0 194.19 52.21"><defs><style>.cls-1{fill:#39b54a;}</style></defs><g id="Layer_2" data-name="Layer 2"><g id="Layer_1-2" data-name="Layer 1"><polygon class="cls-1" points="71.44 15.65 68.16 15.65 68.16 33.73 80.43 33.73 80.43 30.69 71.44 30.69 71.44 15.65"/><path class="cls-1" d="M88.67,20.22c-4,0-6.67,2.92-6.67,7a6.55,6.55,0,0,0,7,6.88,6.88,6.88,0,0,0,5.66-2.54L92.75,29.7a4.58,4.58,0,0,1-3.67,1.66A3.6,3.6,0,0,1,85.2,28.1H95a8.38,8.38,0,0,0,.08-1.21C95.07,22.88,92.46,20.22,88.67,20.22ZM85.2,26a3.32,3.32,0,0,1,3.49-3,3,3,0,0,1,3.23,3Z"/><path class="cls-1" d="M102.12,29.47V23.35h3.72V20.59h-3.72V16.71H99v3.88H96.49v2.76H99v6.54c0,2.79,1.39,4,4.36,4a9.21,9.21,0,0,0,2.56-.36V30.92a8.88,8.88,0,0,1-1.88.21C102.66,31.13,102.12,30.69,102.12,29.47Z"/><polygon class="cls-1" points="108.29 22.06 110.93 22.06 112.84 15.29 109.63 15.29 108.29 22.06"/><path class="cls-1" d="M121.85,26.11l-2.27-.54c-1.35-.31-1.84-.67-1.84-1.32,0-.82.75-1.34,2.2-1.34a5.66,5.66,0,0,1,3.8,1.45l1.68-2a7.05,7.05,0,0,0-5.4-2.1c-3.34,0-5.43,1.66-5.43,4.14,0,1.86,1.22,3.1,3.9,3.72l2.15.49c1.31.31,1.83.75,1.83,1.44,0,.86-.85,1.4-2.32,1.4a5.87,5.87,0,0,1-4.32-1.81l-1.7,2a7.51,7.51,0,0,0,6,2.51c3.44,0,5.5-1.63,5.5-4.29C125.62,27.92,124.54,26.71,121.85,26.11Z"/><path class="cls-1" d="M143.11,18.36a5.44,5.44,0,0,1,5.14,3.26l2.81-1.5a8.46,8.46,0,0,0-8-4.83,9,9,0,0,0-9.28,9.4A9,9,0,0,0,143,34.1a8.48,8.48,0,0,0,8-4.83l-2.79-1.5A5.46,5.46,0,0,1,143.11,31c-3.52,0-5.92-2.68-5.92-6.33S139.59,18.36,143.11,18.36Z"/><path class="cls-1" d="M161.08,20.22a4.54,4.54,0,0,0-4.26,2.28V14.83h-3.15v18.9h3.15V26.19A2.89,2.89,0,0,1,160,23.12c1.73,0,2.5.9,2.5,2.89v7.72h3.15V25.21C165.65,22,164,20.22,161.08,20.22Z"/><path class="cls-1" d="M179.16,22.7a4.85,4.85,0,0,0-4.49-2.48c-3.49,0-6,2.87-6,7s2.56,6.93,6,6.93a4.84,4.84,0,0,0,4.49-2.46v2.09h3.1V20.59h-3.1Zm-3.62,8.53c-2.24,0-3.69-1.65-3.69-4.06s1.45-4.08,3.69-4.08,3.7,1.63,3.7,4.08S177.79,31.23,175.54,31.23Z"/><path class="cls-1" d="M192.3,31.13c-1.34,0-1.88-.44-1.88-1.66V23.35h3.72V20.59h-3.72V16.71h-3.15v3.88h-2.48v2.76h2.48v6.54c0,2.79,1.39,4,4.36,4a9.21,9.21,0,0,0,2.56-.36V30.92A8.9,8.9,0,0,1,192.3,31.13Z"/><path class="cls-1" d="M26.1,0A26.12,26.12,0,0,0,1.91,35.92c.09.23.19.47.23.59s0,.29-.08.49L.52,46.28A5.48,5.48,0,0,0,.6,49.55a3.93,3.93,0,0,0,2.05,2.06,5.49,5.49,0,0,0,3.27.08l9.29-1.55.49-.08.59.24A26.11,26.11,0,1,0,26.1,0Zm0,47a20.83,20.83,0,0,1-7.85-1.53A7.72,7.72,0,0,0,16.84,45a4.8,4.8,0,0,0-1.14-.13,8.16,8.16,0,0,0-1.35.15L5.79,46.42l1.42-8.57a7.21,7.21,0,0,0,.16-1.35,4.92,4.92,0,0,0-.13-1.14A8.85,8.85,0,0,0,6.75,34,20.68,20.68,0,0,1,5.22,26.1,20.89,20.89,0,1,1,26.1,47Z"/><path class="cls-1" d="M26.1,22.19A3.92,3.92,0,1,0,30,26.1,3.91,3.91,0,0,0,26.1,22.19Z"/><path class="cls-1" d="M14.36,22.19a3.92,3.92,0,1,0,3.91,3.91A3.92,3.92,0,0,0,14.36,22.19Z"/><path class="cls-1" d="M37.85,22.19a3.92,3.92,0,1,0,3.91,3.91A3.92,3.92,0,0,0,37.85,22.19Z"/></g></g></svg>