<svg xmlns="http://www.w3.org/2000/svg" viewBox="0 0 9.93 9.03"><defs><style>.cls-1{fill:#e68a58;}</style></defs><g id="Layer_2" data-name="Layer 2"><g id="Layer_1-2" data-name="Layer 1"><path class="cls-1" d="M9.48,9A.45.45,0,0,1,9,8.58v-.9A1.12,1.12,0,0,0,9,7.23a1.23,1.23,0,0,0-.21-.39A1.42,1.42,0,0,0,8,6.36a.45.45,0,0,1-.33-.55.45.45,0,0,1,.55-.32,2.17,2.17,0,0,1,.68.3,2.24,2.24,0,0,1,.53.49,2.3,2.3,0,0,1,.36.65,2.36,2.36,0,0,1,.12.75v.9A.45.45,0,0,1,9.48,9ZM7.22,9a.45.45,0,0,1-.45-.45,4.59,4.59,0,0,0-.1-1.42,1.35,1.35,0,0,0-.29-.44,1.43,1.43,0,0,0-.44-.3,4.59,4.59,0,0,0-1.42-.1H3.16a4.59,4.59,0,0,0-1.42.1,1.32,1.32,0,0,0-.44.3A1.09,1.09,0,0,0,1,7.16,4.19,4.19,0,0,0,.9,8.58a.45.45,0,0,1-.9,0c0-.44,0-.75,0-1a2.48,2.48,0,0,1,.15-.75,2.4,2.4,0,0,1,.49-.73,2.23,2.23,0,0,1,.73-.49,2.48,2.48,0,0,1,.75-.15c.27,0,.58,0,1,0H4.52c.43,0,.75,0,1,0a2.36,2.36,0,0,1,.75.15A2.13,2.13,0,0,1,7,6.08a2.09,2.09,0,0,1,.49.73,2.2,2.2,0,0,1,.16.75c0,.27,0,.58,0,1A.46.46,0,0,1,7.22,9ZM3.84,4.52A2.2,2.2,0,0,1,3,4.34a2.36,2.36,0,0,1-.72-.49,2,2,0,0,1-.48-.71,2.23,2.23,0,0,1-.18-.88,2.2,2.2,0,0,1,.18-.88A2.21,2.21,0,0,1,3,.18,2.2,2.2,0,0,1,3.84,0a2.23,2.23,0,0,1,.88.18,2,2,0,0,1,.71.48,2.36,2.36,0,0,1,.49.72,2.2,2.2,0,0,1,.18.88,2.23,2.23,0,0,1-.18.88,2.2,2.2,0,0,1-.49.71,2.2,2.2,0,0,1-.71.49A2.23,2.23,0,0,1,3.84,4.52ZM3.84.9a1.36,1.36,0,0,0-1,2.32,1.38,1.38,0,0,0,1.92,0,1.38,1.38,0,0,0,0-1.92A1.35,1.35,0,0,0,3.84.9ZM6.55,4.38a.44.44,0,0,1-.42-.28.46.46,0,0,1,.25-.59A1.34,1.34,0,0,0,7,3a1.36,1.36,0,0,0,.23-.76A1.39,1.39,0,0,0,7,1.49,1.34,1.34,0,0,0,6.38,1,.46.46,0,0,1,6.13.41.46.46,0,0,1,6.72.16,2.77,2.77,0,0,1,7.29.5,2.22,2.22,0,0,1,7.73,1a2.25,2.25,0,0,1,.4,1.28,2.2,2.2,0,0,1-.4,1.27A2.06,2.06,0,0,1,7.29,4a2.35,2.35,0,0,1-.57.33Z"/></g></g></svg>