<svg xmlns="http://www.w3.org/2000/svg" viewBox="0 0 10.78 9.8"><defs><style>.cls-1{fill:#e68a58;}</style></defs><g id="Layer_2" data-name="Layer 2"><g id="Layer_1-2" data-name="Layer 1"><path class="cls-1" d="M.49,9.8A.49.49,0,0,1,0,9.31,4.93,4.93,0,0,1,.11,7.86a2.38,2.38,0,0,1,.61-1,2.47,2.47,0,0,1,1-.61,5.37,5.37,0,0,1,1.45-.1h2.2a.48.48,0,0,1,.49.49.49.49,0,0,1-.49.49H3.19A5.29,5.29,0,0,0,2,7.17a1.48,1.48,0,0,0-1,1A5.23,5.23,0,0,0,1,9.31.49.49,0,0,1,.49,9.8Zm7.84-.49A.52.52,0,0,1,8,9.17l-1-1a.49.49,0,1,1,.7-.7l.63.64L9.94,6.51a.49.49,0,0,1,.7.7l-2,2A.52.52,0,0,1,8.33,9.31ZM4.41,5.39a2.7,2.7,0,0,1-1.05-.21A2.78,2.78,0,0,1,2.5,4.6a2.64,2.64,0,0,1-.57-.86,2.71,2.71,0,0,1,0-2.09A2.64,2.64,0,0,1,2.5.79,2.78,2.78,0,0,1,3.36.21a2.73,2.73,0,0,1,2.1,0,2.78,2.78,0,0,1,.86.58,2.64,2.64,0,0,1,.57.86A2.67,2.67,0,0,1,7.11,2.7a2.66,2.66,0,0,1-.22,1,2.64,2.64,0,0,1-.57.86,2.78,2.78,0,0,1-.86.58A2.7,2.7,0,0,1,4.41,5.39ZM4.41,1a1.72,1.72,0,1,0,1.21.5A1.7,1.7,0,0,0,4.41,1Z"/></g></g></svg>