<svg xmlns="http://www.w3.org/2000/svg" viewBox="0 0 10 9.58"><defs><style>.cls-1{fill:#e68a58;}</style></defs><g id="Layer_2" data-name="Layer 2"><g id="Layer_1-2" data-name="Layer 1"><path class="cls-1" d="M2.34,9.58H2.22a.72.72,0,0,1-.5-.37.74.74,0,0,1-.07-.42,2.43,2.43,0,0,1,0-.33l.4-2.28L.43,4.55a2.69,2.69,0,0,1-.24-.24A.71.71,0,0,1,0,3.93.7.7,0,0,1,.2,3.34a.77.77,0,0,1,.38-.21l.32,0,2.3-.34,1-2.08h0c.06-.12.1-.21.15-.29a.81.81,0,0,1,.31-.3.75.75,0,0,1,.62,0,.81.81,0,0,1,.31.3c0,.08.09.17.15.29l1,2.08,2.3.34.32,0a.77.77,0,0,1,.38.21.7.7,0,0,1,.19.59.71.71,0,0,1-.18.38l-.24.24L7.91,6.17,8.3,8.45a1.56,1.56,0,0,1,0,.33.74.74,0,0,1-.07.42.72.72,0,0,1-.5.37.79.79,0,0,1-.43-.06l-.3-.15h0L5,8.28,3,9.36H3l-.3.15A.89.89,0,0,1,2.34,9.58Zm5.39-.95ZM5,7.29l.14,0a.74.74,0,0,1,.26.1h0l1.93,1L7,6.28a.88.88,0,0,1,0-.28A.66.66,0,0,1,7,5.73a.74.74,0,0,1,.18-.21L8.77,4,6.61,3.68a.68.68,0,0,1-.27-.07.73.73,0,0,1-.23-.16h0A1.2,1.2,0,0,1,6,3.21L5,1.26l-1,2a1.2,1.2,0,0,1-.15.24.73.73,0,0,1-.23.16.68.68,0,0,1-.27.07L1.23,4,2.79,5.52A.74.74,0,0,1,3,5.73.66.66,0,0,1,3.06,6a.88.88,0,0,1,0,.28L2.67,8.42l1.93-1a.74.74,0,0,1,.26-.1Zm.1.94Zm2.73-2h0Zm.06-.18Zm1.2-2.38Zm-8.18,0Zm2.4-1ZM4.66.87Z"/></g></g></svg>