<svg xmlns="http://www.w3.org/2000/svg" viewBox="0 0 11.51 9.41"><defs><style>.cls-1{fill:#e68a58;}</style></defs><g id="Layer_2" data-name="Layer 2"><g id="Layer_1-2" data-name="Layer 1"><path class="cls-1" d="M9.31,9.41H2.2A2.87,2.87,0,0,1,.86,9.24,1.6,1.6,0,0,1,.46,9a1.85,1.85,0,0,1-.29-.4A2.9,2.9,0,0,1,0,7.22v-5A2.87,2.87,0,0,1,.17.86,1.57,1.57,0,0,1,.86.17,2.87,2.87,0,0,1,2.2,0h.21c.6,0,1,0,1.41,0a2.59,2.59,0,0,1,1,.26,2.38,2.38,0,0,1,.66.48,1.61,1.61,0,0,1,.24.28A2.26,2.26,0,0,1,6,.77,2.24,2.24,0,0,1,6.66.29a2.53,2.53,0,0,1,1-.26c.37,0,.81,0,1.42,0h.21a2.9,2.9,0,0,1,1.34.17,1.64,1.64,0,0,1,.4.29,2,2,0,0,1,.29.4,2.87,2.87,0,0,1,.17,1.34v5a2.9,2.9,0,0,1-.17,1.34,2.27,2.27,0,0,1-.29.4,1.6,1.6,0,0,1-.4.28A2.9,2.9,0,0,1,9.31,9.41Zm-3-1h3a2.85,2.85,0,0,0,.87-.06.54.54,0,0,0,.22-.23,2.73,2.73,0,0,0,.06-.86v-5a2.77,2.77,0,0,0-.06-.87.54.54,0,0,0-.22-.23,3.4,3.4,0,0,0-.87-.05H9.1c-.58,0-1,0-1.33,0a1.71,1.71,0,0,0-.64.15,1.37,1.37,0,0,0-.39.29,1.37,1.37,0,0,0-.29.39,1.71,1.71,0,0,0-.15.64c0,.33,0,.75,0,1.33ZM2.2,1.05a3.31,3.31,0,0,0-.87.05.51.51,0,0,0-.23.23,3.31,3.31,0,0,0-.05.87v5a3.26,3.26,0,0,0,.05.86.51.51,0,0,0,.23.23,2.77,2.77,0,0,0,.87.06h3V3.87c0-.58,0-1,0-1.33a1.56,1.56,0,0,0-.14-.64,1.58,1.58,0,0,0-.29-.39,1.41,1.41,0,0,0-.4-.29,1.7,1.7,0,0,0-.63-.15c-.33,0-.75,0-1.33,0Z"/></g></g></svg>