<?xml version="1.0" encoding="UTF-8"?>
<svg id="Layer_2" data-name="Layer 2" xmlns="http://www.w3.org/2000/svg" viewBox="0 0 1561.27 360.9">
  <defs>
    <style>
      .cls-1 {
        fill: #02484c;
      }
    </style>
  </defs>
  <g id="Layer_1-2" data-name="Layer 1">
    <g>
      <path class="cls-1" d="M0,360.9H360.9V0H0V360.9ZM47.49,47.49H313.41V180.45H180.45l132.96,132.96H47.49V47.49Z"/>
      <path class="cls-1" d="M588.2,191.51c14.24-16.95,14.51-36.15,14.51-41.77,0-37.45-23.5-59.66-62.51-59.66h-89.08v180.77h41.31v-61.47c8.99-.03,17.98-.06,26.97-.08,13.04,20.52,26.1,41.04,39.15,61.55h47.51c-14.29-20.49-28.57-40.98-42.86-61.47,5.65-2.23,16.09-7.25,25-17.87Zm-53.15-16.47h-42.62v-49.58h42.62c17.82,0,24.53,7.75,24.53,24.79s-6.71,24.79-24.53,24.79Z"/>
      <path class="cls-1" d="M686.93,134.09c-41.47,0-69.5,28.29-69.5,71.39s28.29,68.96,70.85,68.96c10.15,0,31.55,.49,48.07-15.63,10.17-9.93,14.11-21.81,15.69-29.47h-38.64c-5.14,9.31-11.68,12.23-24.04,12.23-18.85,0-27.47-6.2-29.9-25.05h94.28c2.16-49.56-19.65-82.43-66.8-82.43Zm-27.48,57.65c2.16-18.06,10.23-25.86,28.56-25.86,16.96,0,25.32,6.73,25.6,25.86h-54.16Z"/>
      <rect class="cls-1" x="776.38" y="134.99" width="41.56" height="136.72"/>
      <path class="cls-1" d="M934.23,132.25c-22.42,0-36.64,11.21-43.2,33.63v-30.9h-41.56v136.72h41.56v-66.45c0-24.61,10.39-35.27,26.8-35.27,15.31,0,22.97,7.66,22.97,24.34v77.38h41.56v-79.84c0-40.2-15.59-59.61-48.13-59.61Z"/>
      <path class="cls-1" d="M1187.32,132.25c-22.97,0-39.92,10.39-48.95,33.36-5.74-22.42-20.78-33.36-45.12-33.36-22.42,0-36.64,11.21-43.2,33.63v-30.9h-41.56v136.72h41.56v-66.45c0-24.61,10.39-35.27,26.8-35.27,15.31,0,22.97,7.66,22.97,24.34v77.38h41.56v-60.98c0-30.35,10.39-40.74,26.8-40.74s22.97,8.75,22.97,24.34v77.38h41.56v-79.84c0-40.47-14.49-59.61-45.39-59.61Z"/>
      <path class="cls-1" d="M1359.67,166.71c-7.93-22.42-24.61-34.45-47.85-34.45-37.46,0-57.97,28.44-57.97,71.37s21.6,70.82,60.7,70.82c21.88,0,37.46-11.76,45.12-33.36v30.63h41.56V134.99h-41.56v31.72Zm-31.99,70c-21.88,0-32.27-10.66-32.27-33.09s10.39-33.63,32.27-33.63,33.36,10.66,33.36,33.63-10.66,33.09-33.36,33.09Z"/>
      <polygon class="cls-1" points="1561.27 134.99 1512.6 134.99 1497.29 164.79 1489.36 184.21 1481.7 164.52 1466.94 134.99 1417.72 134.99 1463.11 203.35 1417.44 271.71 1466.12 271.71 1481.7 240.26 1488.81 221.67 1496.47 240.53 1512.6 271.71 1561.27 271.71 1515.61 203.35 1561.27 134.99"/>
      <path class="cls-1" d="M797.7,67.73c-15.27-1.2-27.92,11.44-26.72,26.72,.95,12.01,10.68,21.75,22.69,22.69,15.27,1.2,27.92-11.44,26.72-26.72-.95-12.01-10.68-21.75-22.69-22.69Z"/>
    </g>
  </g>
</svg>