<svg xmlns="http://www.w3.org/2000/svg" viewBox="0 0 838.67 57.84"><defs><style>.cls-1{fill:#ccc;}.cls-2{font-size:12px;fill:#02484c;font-family:BRFirma-Bold, BR Firma;font-weight:700;}.cls-3{font-family:BRFirma-Light, BR Firma;font-weight:300;}.cls-4{letter-spacing:-0.01em;}.cls-5{fill:#e68a58;}.cls-6{letter-spacing:-0.09em;}.cls-7{letter-spacing:-0.01em;}.cls-8{letter-spacing:0em;}.cls-9{letter-spacing:0em;}.cls-10{letter-spacing:-0.01em;}.cls-11{letter-spacing:0em;}.cls-12{letter-spacing:-0.02em;}</style></defs><g id="Layer_2" data-name="Layer 2"><g id="Layer_1-2" data-name="Layer 1"><rect class="cls-1" x="221.7" y="18.7" width="0.68" height="20.05"/><rect class="cls-1" y="18.7" width="0.68" height="20.05"/><rect class="cls-1" x="400.85" y="18.7" width="0.68" height="20.05"/><rect class="cls-1" x="608.97" y="18.7" width="0.68" height="20.05"/><rect class="cls-1" x="837.99" y="18.7" width="0.68" height="20.05"/><text class="cls-2" transform="translate(99.75 40.36) scale(0.95 1)">50+<tspan class="cls-3"><tspan x="-29.78" y="14.4">Happy Clie</tspan><tspan class="cls-4" x="35.66" y="14.4">n</tspan><tspan x="42.92" y="14.4">ts</tspan></tspan></text><path class="cls-5" d="M105.16,12.64a.62.62,0,0,1-.6-.64,6.84,6.84,0,0,1,.13-1.86,3.16,3.16,0,0,1,.75-1.32A3,3,0,0,1,106.7,8a6.23,6.23,0,0,1,1.78-.13h2.71a.63.63,0,0,1,0,1.26h-2.71a5.89,5.89,0,0,0-1.43.08,1.88,1.88,0,0,0-1.21,1.27,6.45,6.45,0,0,0-.08,1.49A.62.62,0,0,1,105.16,12.64Zm9.65-.64a.6.6,0,0,1-.43-.18l-1.21-1.26a.67.67,0,0,1,0-.9.6.6,0,0,1,.86,0l.78.82,2-2.08a.58.58,0,0,1,.85,0,.64.64,0,0,1,0,.89l-2.41,2.53A.59.59,0,0,1,114.81,12ZM110,7a3.21,3.21,0,0,1-1.29-.27,3.37,3.37,0,0,1-1-.75,3.3,3.3,0,0,1-.71-1.1,3.49,3.49,0,0,1-.26-1.35,3.5,3.5,0,0,1,.26-1.36,3.3,3.3,0,0,1,.71-1.1,3.37,3.37,0,0,1,1-.75A3.21,3.21,0,0,1,110,0a3.17,3.17,0,0,1,1.29.27,3.41,3.41,0,0,1,1.06.75,3.65,3.65,0,0,1,.71,1.1,3.66,3.66,0,0,1,0,2.71,3.65,3.65,0,0,1-.71,1.1,3.41,3.41,0,0,1-1.06.75A3.17,3.17,0,0,1,110,7Zm0-5.69a2,2,0,0,0-1.49.65,2.29,2.29,0,0,0,0,3.13,2,2,0,0,0,1.49.65A2,2,0,0,0,111.47,5a2.29,2.29,0,0,0,0-3.13A2,2,0,0,0,110,1.26Z"/><text class="cls-2" transform="translate(498.8 39.8) scale(0.95 1)">10<tspan class="cls-3"><tspan class="cls-6" x="-27.89" y="14.4">T</tspan><tspan x="-21.64" y="14.4">eamma</tspan><tspan class="cls-7" x="23.54" y="14.4">t</tspan><tspan x="28.19" y="14.4">es</tspan></tspan></text><path class="cls-5" d="M510.23,11.54a.51.51,0,0,1-.5-.53V10a1.82,1.82,0,0,0-.08-.52,2,2,0,0,0-.24-.45,1.53,1.53,0,0,0-.8-.55.51.51,0,0,1-.36-.63.5.5,0,0,1,.61-.38,2.64,2.64,0,0,1,.74.35,2.46,2.46,0,0,1,.59.57,2.5,2.5,0,0,1,.39.74,2.57,2.57,0,0,1,.15.87v1A.52.52,0,0,1,510.23,11.54Zm-2.49,0a.51.51,0,0,1-.5-.53,5.56,5.56,0,0,0-.11-1.64,1.72,1.72,0,0,0-.33-.51,1.61,1.61,0,0,0-.48-.34,5.12,5.12,0,0,0-1.57-.11h-1.49a5.08,5.08,0,0,0-1.57.11,1.5,1.5,0,0,0-.48.34,1.72,1.72,0,0,0-.33.51,5.56,5.56,0,0,0-.11,1.64.5.5,0,1,1-1,0c0-.5,0-.86,0-1.17A3.19,3.19,0,0,1,500,9a2.63,2.63,0,0,1,.54-.84,2.39,2.39,0,0,1,.81-.57,2.49,2.49,0,0,1,.82-.18c.3,0,.65,0,1.13,0h1.49c.48,0,.83,0,1.12,0a2.56,2.56,0,0,1,.83.18,2.49,2.49,0,0,1,.81.57,2.63,2.63,0,0,1,.54.84,3.19,3.19,0,0,1,.17.87c0,.31,0,.67,0,1.17A.52.52,0,0,1,507.74,11.54ZM504,6.32a2.35,2.35,0,0,1-1-.21,2.53,2.53,0,0,1-.79-.56,2.82,2.82,0,0,1-.53-.82,2.7,2.7,0,0,1,0-2,2.87,2.87,0,0,1,.53-.83,2.68,2.68,0,0,1,.79-.55,2.35,2.35,0,0,1,1-.21,2.29,2.29,0,0,1,1,.21,2.44,2.44,0,0,1,.79.55,2.7,2.7,0,0,1,.54.83,2.83,2.83,0,0,1,0,2,2.66,2.66,0,0,1-.54.82,2.32,2.32,0,0,1-.79.56A2.29,2.29,0,0,1,504,6.32Zm0-4.18A1.47,1.47,0,0,0,503,2.6a1.62,1.62,0,0,0,0,2.22,1.46,1.46,0,0,0,2.11,0,1.62,1.62,0,0,0,0-2.22A1.48,1.48,0,0,0,504,2.14Zm3,4a.5.5,0,0,1-.46-.33.54.54,0,0,1,.27-.68,1.45,1.45,0,0,0,.68-.57,1.59,1.59,0,0,0,.26-.88,1.65,1.65,0,0,0-.26-.89,1.49,1.49,0,0,0-.68-.56.54.54,0,0,1-.27-.68.49.49,0,0,1,.65-.29,2.75,2.75,0,0,1,.63.39,2.88,2.88,0,0,1,.49.55,2.75,2.75,0,0,1,.43,1.48,2.69,2.69,0,0,1-.43,1.47,2.94,2.94,0,0,1-.49.56,2.75,2.75,0,0,1-.63.39A.65.65,0,0,1,507,6.17Z"/><text class="cls-2" transform="translate(712.41 39.99) scale(0.95 1)"><tspan class="cls-8">2</tspan><tspan x="7" y="0">0+</tspan><tspan class="cls-3"><tspan x="-33.65" y="14.4">Design </tspan><tspan class="cls-9" x="9.89" y="14.4">C</tspan><tspan x="19.08" y="14.4">ou</tspan><tspan class="cls-10" x="33.72" y="14.4">r</tspan><tspan x="38.29" y="14.4">ses</tspan></tspan></text><path class="cls-5" d="M727.74,11.76H719.9a3,3,0,0,1-1.48-.2,2,2,0,0,1-.44-.33,2.1,2.1,0,0,1-.32-.46,3.45,3.45,0,0,1-.19-1.55V3.42a3.45,3.45,0,0,1,.19-1.55,1.89,1.89,0,0,1,.32-.46,1.75,1.75,0,0,1,.44-.33,3,3,0,0,1,1.48-.2h.23c.67,0,1.15,0,1.56,0a2.71,2.71,0,0,1,1.86.85.28.28,0,1,0,.54,0A2.71,2.71,0,0,1,726,.91c.4,0,.89,0,1.56,0h.23a3,3,0,0,1,1.48.2,1.54,1.54,0,0,1,.43.33,1.65,1.65,0,0,1,.32.46,3.45,3.45,0,0,1,.19,1.55v5.8a3.45,3.45,0,0,1-.19,1.55,1.81,1.81,0,0,1-.32.46,1.76,1.76,0,0,1-.43.33A3,3,0,0,1,727.74,11.76Zm-3.35-1.21h3.35a2.85,2.85,0,0,0,1-.07.65.65,0,0,0,.26-.26,3.7,3.7,0,0,0,.06-1V3.42a3.66,3.66,0,0,0-.06-1,.62.62,0,0,0-.26-.27,3.31,3.31,0,0,0-1-.06h-.23c-.64,0-1.11,0-1.47,0a1.83,1.83,0,0,0-.7.17,1.54,1.54,0,0,0-.44.33,1.89,1.89,0,0,0-.32.46,2.15,2.15,0,0,0-.16.73c0,.38,0,.87,0,1.54ZM719.9,2.09a3.43,3.43,0,0,0-1,.06.6.6,0,0,0-.25.27,3.66,3.66,0,0,0-.06,1v5.8a3.7,3.7,0,0,0,.06,1,.63.63,0,0,0,.25.26,3,3,0,0,0,1,.07h3.34V5.35c0-.67,0-1.16,0-1.54a1.76,1.76,0,0,0-.16-.73,1.65,1.65,0,0,0-.32-.46,1.37,1.37,0,0,0-.43-.33,1.83,1.83,0,0,0-.7-.17c-.37,0-.83,0-1.47,0Z"/><text class="cls-2" transform="translate(303.07 40.01) scale(0.95 1)"><tspan class="cls-11">4</tspan><tspan x="7.48" y="0">.5</tspan><tspan class="cls-3"><tspan class="cls-12" x="-10.52" y="14.4">R</tspan><tspan x="-2.42" y="14.4">ating</tspan></tspan></text><path class="cls-5" d="M308.63,12l-.13,0a.8.8,0,0,1-.56-.42.9.9,0,0,1-.09-.5c0-.11,0-.23.06-.39l.44-2.68L306.48,6l-.26-.28A1,1,0,0,1,306,5.3a.83.83,0,0,1,.64-.93l.37-.06,2.57-.4,1.16-2.44h0a2.88,2.88,0,0,1,.17-.35.89.89,0,0,1,.35-.35.76.76,0,0,1,.69,0,.89.89,0,0,1,.35.35l.17.35,1.15,2.44,2.58.4.36.06a.86.86,0,0,1,.43.24.83.83,0,0,1,.21.69.86.86,0,0,1-.21.46,3,3,0,0,1-.26.28l-1.86,1.9.44,2.68a2.18,2.18,0,0,1,.05.39,1,1,0,0,1-.08.5.8.8,0,0,1-.56.42.87.87,0,0,1-.48-.06l-.33-.18h0l-2.31-1.27-2.3,1.27h0l-.33.18A1.06,1.06,0,0,1,308.63,12Zm6-1.12h0Zm-3.06-1.57a.41.41,0,0,1,.16,0,.93.93,0,0,1,.29.12h0l2.16,1.19-.41-2.52a1.2,1.2,0,0,1,0-.33.81.81,0,0,1,.1-.31.86.86,0,0,1,.2-.26l1.75-1.78L313.42,5a1.18,1.18,0,0,1-.31-.08.92.92,0,0,1-.25-.19h0a1,1,0,0,1-.17-.28l-1.08-2.29-1.08,2.29a1,1,0,0,1-.17.29.79.79,0,0,1-.25.19,1.11,1.11,0,0,1-.3.08l-2.42.37,1.75,1.78a1.06,1.06,0,0,1,.2.26,1,1,0,0,1,.1.31,1.77,1.77,0,0,1,0,.33L309,10.59l2.16-1.19a1,1,0,0,1,.3-.12A.39.39,0,0,1,311.61,9.26Zm.11,1.1ZM314.79,8Zm.07-.22ZM316.19,5ZM307,5Zm2.69-1.12Zm1.51-2.17Z"/></g></g></svg>