<svg xmlns="http://www.w3.org/2000/svg" viewBox="0 0 616.31 100.38"><defs><style>.cls-1{font-size:40px;fill:#02484c;font-family:JoemanRegular, Joeman;}.cls-1,.cls-19{letter-spacing:0.03em;}.cls-2{letter-spacing:0.01em;}.cls-3{letter-spacing:0.01em;}.cls-4{letter-spacing:0.01em;}.cls-5{letter-spacing:0.01em;}.cls-6{letter-spacing:0.01em;}.cls-7{letter-spacing:0.01em;}.cls-8{letter-spacing:0.01em;}.cls-9{letter-spacing:-0.05em;}.cls-10{letter-spacing:0em;}.cls-11{letter-spacing:-0.01em;}.cls-12{letter-spacing:0.03em;}.cls-13{letter-spacing:-0.11em;}.cls-14{letter-spacing:0.01em;}.cls-15{letter-spacing:-0.01em;}.cls-16{letter-spacing:0em;}.cls-17{letter-spacing:-0.01em;}.cls-18{letter-spacing:-0.09em;}.cls-20{letter-spacing:0em;}.cls-21{letter-spacing:0em;}</style></defs><g id="Layer_2" data-name="Layer 2"><g id="Layer_1-2" data-name="Layer 1"><text class="cls-1" transform="translate(0 35.62)">Hi, <tspan class="cls-2" x="51.48" y="0">Y</tspan><tspan class="cls-3" x="75.88" y="0">o</tspan><tspan x="107.92" y="0">ur </tspan><tspan class="cls-4" x="167.36" y="0">v</tspan><tspan class="cls-5" x="194.16" y="0">is</tspan><tspan class="cls-6" x="225.72" y="0">i</tspan><tspan class="cls-7" x="232.48" y="0">o</tspan><tspan x="264.6" y="0">n </tspan><tspan class="cls-8" x="300.96" y="0">d</tspan><tspan class="cls-9" x="327.68" y="0">e</tspan><tspan class="cls-5" x="349.84" y="0">s</tspan><tspan class="cls-10" x="374.48" y="0">e</tspan><tspan class="cls-11" x="398.36" y="0">r</tspan><tspan class="cls-4" x="422.16" y="0">v</tspan><tspan class="cls-9" x="448.96" y="0">e</tspan><tspan class="cls-12" x="471.12" y="0">s </tspan><tspan class="cls-13" x="505.28" y="0">t</tspan><tspan x="524.96" y="0">o </tspan><tspan class="cls-14" x="566.72" y="0">b</tspan><tspan x="591.04" y="0">e</tspan><tspan class="cls-15"><tspan x="60.12" y="60">t</tspan><tspan class="cls-6" x="83.92" y="60">h</tspan><tspan class="cls-3" x="110.6" y="60">o</tspan><tspan class="cls-2" x="142.64" y="60">u</tspan><tspan class="cls-16" x="167.04" y="60">g</tspan><tspan x="198.76" y="60">htf</tspan><tspan class="cls-12" x="272.36" y="60">u</tspan><tspan class="cls-17" x="297.64" y="60">l</tspan><tspan class="cls-18" x="323.6" y="60">l</tspan><tspan class="cls-19" x="346.24" y="60">y </tspan><tspan class="cls-20" x="380.4" y="60">c</tspan><tspan class="cls-21" x="406.44" y="60">r</tspan><tspan class="cls-4" x="430.44" y="60">a</tspan><tspan class="cls-11" x="457.24" y="60">ft</tspan><tspan class="cls-20" x="504.84" y="60">e</tspan><tspan class="cls-19" x="528.72" y="60">d</tspan></tspan></text></g></g></svg>